<svg xmlns="http://www.w3.org/2000/svg" xmlns:xlink="http://www.w3.org/1999/xlink" aria-hidden="true" style="position:absolute;width:0;height:0;overflow:hidden" version="1.1"><defs><symbol id="icon-cloud-snowflakes" viewBox="0 0 32 32"><path d="M7.101 15.102c-1.776 0.41-3.101 2.002-3.101 3.898 0 2.209 1.798 4 4.003 4h16.994c2.211 0 4.003-1.795 4.003-4 0-1.877-1.299-3.453-3.042-3.884v0c0.028-0.202 0.042-0.407 0.042-0.616 0-2.485-2.015-4.5-4.5-4.5-1.226 0-2.337 0.49-3.148 1.285-0.991-1.949-3.015-3.285-5.352-3.285-3.314 0-6 2.686-6 6 0 0.377 0.035 0.745 0.101 1.102v0zM26.999 14.415c1.768 0.771 3.001 2.534 3.001 4.585 0 2.756-2.238 5-4.999 5h-17.001c-2.767 0-4.999-2.239-4.999-5 0-2.051 1.24-3.818 3.012-4.588v0c-0.008-0.136-0.012-0.273-0.012-0.412 0-3.866 3.134-7 7-7 2.298 0 4.337 1.107 5.614 2.817 0.839-0.518 1.828-0.817 2.886-0.817 3.009 0 5.454 2.416 5.499 5.415v0 0zM11 26.634v-1.136c0-0.275-0.232-0.498-0.5-0.498-0.276 0-0.5 0.215-0.5 0.498v1.136l-0.984-0.568c-0.238-0.137-0.547-0.048-0.681 0.184-0.138 0.239-0.064 0.54 0.181 0.682l0.984 0.568-0.984 0.568c-0.238 0.137-0.315 0.45-0.181 0.682 0.138 0.239 0.436 0.326 0.681 0.184l0.984-0.568v1.136c0 0.275 0.232 0.498 0.5 0.498 0.276 0 0.5-0.215 0.5-0.498v-1.136l0.984 0.568c0.238 0.137 0.547 0.048 0.681-0.184 0.138-0.239 0.064-0.54-0.181-0.682l-0.984-0.568 0.984-0.568c0.238-0.137 0.315-0.45 0.181-0.682-0.138-0.239-0.436-0.326-0.681-0.184l-0.984 0.568zM23 26.634v-1.136c0-0.275-0.232-0.498-0.5-0.498-0.276 0-0.5 0.215-0.5 0.498v1.136l-0.984-0.568c-0.238-0.137-0.547-0.048-0.681 0.184-0.138 0.239-0.064 0.54 0.181 0.682l0.984 0.568-0.984 0.568c-0.238 0.137-0.315 0.45-0.181 0.682 0.138 0.239 0.436 0.326 0.681 0.184l0.984-0.568v1.136c0 0.275 0.232 0.498 0.5 0.498 0.276 0 0.5-0.215 0.5-0.498v-1.136l0.984 0.568c0.238 0.137 0.547 0.048 0.681-0.184 0.138-0.239 0.064-0.54-0.181-0.682l-0.984-0.568 0.984-0.568c0.238-0.137 0.315-0.45 0.181-0.682-0.138-0.239-0.436-0.326-0.681-0.184l-0.984 0.568zM17 27.634v-1.136c0-0.275-0.232-0.498-0.5-0.498-0.276 0-0.5 0.215-0.5 0.498v1.136l-0.984-0.568c-0.238-0.137-0.547-0.048-0.681 0.184-0.138 0.239-0.064 0.54 0.181 0.682l0.984 0.568-0.984 0.568c-0.238 0.137-0.315 0.45-0.181 0.682 0.138 0.239 0.436 0.326 0.681 0.184l0.984-0.568v1.136c0 0.275 0.232 0.498 0.5 0.498 0.276 0 0.5-0.215 0.5-0.498v-1.136l0.984 0.568c0.238 0.137 0.547 0.048 0.681-0.184 0.138-0.239 0.064-0.54-0.181-0.682l-0.984-0.568 0.984-0.568c0.238-0.137 0.315-0.45 0.181-0.682-0.138-0.239-0.436-0.326-0.681-0.184l-0.984 0.568z"/></symbol><symbol id="icon-cloud-raindrops" viewBox="0 0 32 32"><path d="M7.101 15.102c-1.776 0.41-3.101 2.002-3.101 3.898 0 2.209 1.798 4 4.003 4h16.994c2.211 0 4.003-1.795 4.003-4 0-1.877-1.299-3.453-3.042-3.884v0c0.028-0.202 0.042-0.407 0.042-0.616 0-2.485-2.015-4.5-4.5-4.5-1.226 0-2.337 0.49-3.148 1.285-0.991-1.949-3.015-3.285-5.352-3.285-3.314 0-6 2.686-6 6 0 0.377 0.035 0.745 0.101 1.102v0zM26.999 14.415c1.768 0.771 3.001 2.534 3.001 4.585 0 2.756-2.238 5-4.999 5h-17.001c-2.767 0-4.999-2.239-4.999-5 0-2.051 1.24-3.818 3.012-4.588v0c-0.008-0.136-0.012-0.273-0.012-0.412 0-3.866 3.134-7 7-7 2.298 0 4.337 1.107 5.614 2.817 0.839-0.518 1.828-0.817 2.886-0.817 3.009 0 5.454 2.416 5.499 5.415v0 0zM7 28.857v0c0 1.114 0.834 2.143 2.511 2.143s2.489-1.114 2.489-2.143c0-1.444-2.489-3.857-2.489-3.857s-2.511 2.414-2.511 3.857zM8.010 28.8c0-0.7 1.501-2.321 1.501-2.321s1.502 1.621 1.502 2.321c0 0.752-0.669 1.2-1.502 1.2s-1.501-0.325-1.501-1.2v0zM14 29.857v0c0 1.114 0.834 2.143 2.511 2.143s2.489-1.114 2.489-2.143c0-1.444-2.489-3.857-2.489-3.857s-2.511 2.414-2.511 3.857zM15.010 29.8c0-0.7 1.501-2.321 1.501-2.321s1.502 1.621 1.502 2.321c0 0.752-0.669 1.2-1.502 1.2s-1.501-0.325-1.501-1.2v0zM21 28.857v0c0 1.114 0.834 2.143 2.511 2.143s2.489-1.114 2.489-2.143c0-1.444-2.489-3.857-2.489-3.857s-2.511 2.414-2.511 3.857zM22.010 28.8c0-0.7 1.501-2.321 1.501-2.321s1.502 1.621 1.502 2.321c0 0.752-0.669 1.2-1.502 1.2s-1.501-0.325-1.501-1.2v0z"/></symbol><symbol id="icon-cloud-moon-lightning" viewBox="0 0 32 32"><path d="M17.067 21l1.533-4h-3.9l-2.3 6h2.579l-1.479 4.1 6.1-6.1h-2.533zM19 23h5.997c2.211 0 4.003-1.795 4.003-4 0-1.877-1.299-3.453-3.042-3.884v0c0.028-0.202 0.042-0.407 0.042-0.616 0-2.485-2.015-4.5-4.5-4.5-1.226 0-2.337 0.49-3.148 1.285-0.991-1.949-3.015-3.285-5.352-3.285-3.314 0-6 2.686-6 6 0 0.377 0.035 0.745 0.101 1.102v0c-1.776 0.41-3.101 2.002-3.101 3.898 0 2.209 1.798 4 4.003 4h3.372l2.625-7h6l-1.5 4h3.5l-3 3zM13.545 24h-5.546c-2.767 0-4.999-2.239-4.999-5 0-2.051 1.24-3.818 3.012-4.588-0.008-0.136-0.012-0.273-0.012-0.412 0-3.866 3.134-7 7-7 1.129 0 2.196 0.267 3.141 0.743-0.092-0.399-0.141-0.815-0.141-1.243 0-2.577 1.772-4.739 4.163-5.337 0.351-0.088 0.716-0.142 1.091-0.158-0.165 0.468-0.254 0.971-0.254 1.495 0 2.485 2.015 4.5 4.5 4.5 0.524 0 1.027-0.090 1.495-0.254-0.016 0.375-0.070 0.739-0.158 1.091-0.258 1.035-0.81 1.954-1.562 2.664v0c1.043 0.985 1.701 2.373 1.724 3.915 1.768 0.771 3.001 2.534 3.001 4.585 0 2.756-2.238 5-4.999 5h-7.001l-7 7 2.545-7zM24.477 9.875c0.57-0.503 1.011-1.148 1.269-1.88-0.081 0.004-0.163 0.005-0.246 0.005-3.038 0-5.5-2.462-5.5-5.5 0-0.082 0.002-0.164 0.005-0.246-1.751 0.616-3.005 2.284-3.005 4.246 0 0.8 0.209 1.55 0.574 2.201 0.386 0.333 0.734 0.707 1.039 1.116 0.839-0.518 1.828-0.817 2.886-0.817 1.097 0 2.119 0.321 2.977 0.875v0 0z"/></symbol><symbol id="icon-cloud-sun-lightning" viewBox="0 0 32 32"><path d="M17.067 21l1.533-4h-3.9l-2.3 6h2.579l-1.479 4.1 6.1-6.1h-2.533zM19 23h5.997c2.211 0 4.003-1.795 4.003-4 0-1.877-1.299-3.453-3.042-3.884v0c0.028-0.202 0.042-0.407 0.042-0.616 0-2.485-2.015-4.5-4.5-4.5-1.226 0-2.337 0.49-3.148 1.285-0.991-1.949-3.015-3.285-5.352-3.285-3.314 0-6 2.686-6 6 0 0.377 0.035 0.745 0.101 1.102v0c-1.776 0.41-3.101 2.002-3.101 3.898 0 2.209 1.798 4 4.003 4h3.372l2.625-7h6l-1.5 4h3.5l-3 3zM13.545 24h-5.546c-2.767 0-4.999-2.239-4.999-5 0-2.051 1.24-3.818 3.012-4.588-0.008-0.136-0.012-0.273-0.012-0.412 0-3.866 3.134-7 7-7 0.522 0 1.030 0.057 1.519 0.165v0c0.878-1.87 2.778-3.165 4.981-3.165 3.038 0 5.5 2.462 5.5 5.5 0 0.244-0.016 0.484-0.047 0.719v0c1.228 0.992 2.020 2.501 2.046 4.195 1.768 0.771 3.001 2.534 3.001 4.585 0 2.756-2.238 5-4.999 5h-7.001l-7 7 2.545-7zM23.999 9.599c0.001-0.033 0.001-0.066 0.001-0.099 0-2.485-2.015-4.5-4.5-4.5-1.749 0-3.265 0.998-4.010 2.456 1.253 0.477 2.334 1.304 3.124 2.362 0.839-0.518 1.828-0.817 2.886-0.817 0.9 0 1.749 0.216 2.499 0.599v0 0zM19.5 0c-0.276 0-0.5 0.216-0.5 0.495v2.009c0 0.274 0.232 0.495 0.5 0.495 0.276 0 0.5-0.216 0.5-0.495v-2.009c0-0.274-0.232-0.495-0.5-0.495v0zM26.233 2.789c-0.195-0.195-0.506-0.201-0.704-0.003l-1.421 1.421c-0.193 0.193-0.186 0.514 0.003 0.704 0.195 0.195 0.506 0.201 0.704 0.003l1.421-1.421c0.193-0.193 0.186-0.514-0.003-0.704v0zM29.022 9.522c0-0.276-0.216-0.5-0.495-0.5h-2.009c-0.274 0-0.495 0.232-0.495 0.5 0 0.276 0.216 0.5 0.495 0.5h2.009c0.274 0 0.495-0.232 0.495-0.5v0zM12.767 2.789c-0.195 0.195-0.201 0.506-0.003 0.704l1.421 1.421c0.193 0.193 0.514 0.186 0.704-0.003 0.195-0.195 0.201-0.506 0.003-0.704l-1.421-1.421c-0.193-0.193-0.514-0.186-0.704 0.003v0z"/></symbol><symbol id="icon-cloud-sun-snow" viewBox="0 0 32 32"><path d="M7.101 15.102v0c-0.066-0.357-0.101-0.726-0.101-1.102 0-3.314 2.686-6 6-6 2.336 0 4.361 1.335 5.352 3.285 0.812-0.795 1.923-1.285 3.148-1.285 2.485 0 4.5 2.015 4.5 4.5 0 0.209-0.014 0.415-0.042 0.616v0c1.743 0.431 3.042 2.006 3.042 3.884 0 2.205-1.792 4-4.003 4h-16.994c-2.205 0-4.003-1.791-4.003-4 0-1.895 1.325-3.488 3.101-3.898zM24.953 10.219c0.031-0.235 0.047-0.475 0.047-0.719 0-3.038-2.462-5.5-5.5-5.5-2.203 0-4.103 1.295-4.981 3.165v0c-0.489-0.108-0.997-0.165-1.519-0.165-3.866 0-7 3.134-7 7 0 0.138 0.004 0.275 0.012 0.412-1.772 0.77-3.012 2.538-3.012 4.588 0 2.761 2.232 5 4.999 5h17.001c2.761 0 4.999-2.244 4.999-5 0-2.052-1.232-3.815-3.001-4.585-0.026-1.695-0.818-3.204-2.046-4.195v0 0zM23.999 9.599v0 0c-0.75-0.383-1.599-0.599-2.499-0.599-1.059 0-2.047 0.299-2.886 0.817-0.789-1.057-1.87-1.884-3.124-2.362 0.745-1.458 2.261-2.456 4.010-2.456 2.485 0 4.5 2.015 4.5 4.5 0 0.033-0 0.066-0.001 0.099zM10 26c-0.552 0-1 0.444-1 1 0 0.552 0.444 1 1 1 0.552 0 1-0.444 1-1 0-0.552-0.444-1-1-1v0zM13 29c-0.552 0-1 0.444-1 1 0 0.552 0.444 1 1 1 0.552 0 1-0.444 1-1 0-0.552-0.444-1-1-1v0zM17 26c-0.552 0-1 0.444-1 1 0 0.552 0.444 1 1 1 0.552 0 1-0.444 1-1 0-0.552-0.444-1-1-1v0zM20 29c-0.552 0-1 0.444-1 1 0 0.552 0.444 1 1 1 0.552 0 1-0.444 1-1 0-0.552-0.444-1-1-1v0zM23 26c-0.552 0-1 0.444-1 1 0 0.552 0.444 1 1 1 0.552 0 1-0.444 1-1 0-0.552-0.444-1-1-1v0zM19.5 0c-0.276 0-0.5 0.216-0.5 0.495v2.009c0 0.274 0.232 0.495 0.5 0.495 0.276 0 0.5-0.216 0.5-0.495v-2.009c0-0.274-0.232-0.495-0.5-0.495v0zM26.233 2.789c-0.195-0.195-0.506-0.201-0.704-0.003l-1.421 1.421c-0.193 0.193-0.186 0.514 0.003 0.704 0.195 0.195 0.506 0.201 0.704 0.003l1.421-1.421c0.193-0.193 0.186-0.514-0.003-0.704v0zM29.022 9.522c0-0.276-0.216-0.5-0.495-0.5h-2.009c-0.274 0-0.495 0.232-0.495 0.5 0 0.276 0.216 0.5 0.495 0.5h2.009c0.274 0 0.495-0.232 0.495-0.5v0zM12.767 2.789c-0.195 0.195-0.201 0.506-0.003 0.704l1.421 1.421c0.193 0.193 0.514 0.186 0.704-0.003 0.195-0.195 0.201-0.506 0.003-0.704l-1.421-1.421c-0.193-0.193-0.514-0.186-0.704 0.003v0z"/></symbol><symbol id="icon-cloud-sun-rain" viewBox="0 0 32 32"><path d="M7.101 15.102v0c-0.066-0.357-0.101-0.726-0.101-1.102 0-3.314 2.686-6 6-6 2.336 0 4.361 1.335 5.352 3.285 0.812-0.795 1.923-1.285 3.148-1.285 2.485 0 4.5 2.015 4.5 4.5 0 0.209-0.014 0.415-0.042 0.616v0c1.743 0.431 3.042 2.006 3.042 3.884 0 2.205-1.792 4-4.003 4h-16.994c-2.205 0-4.003-1.791-4.003-4 0-1.895 1.325-3.488 3.101-3.898zM24.953 10.219c0.031-0.235 0.047-0.475 0.047-0.719 0-3.038-2.462-5.5-5.5-5.5-2.203 0-4.103 1.295-4.981 3.165v0c-0.489-0.108-0.997-0.165-1.519-0.165-3.866 0-7 3.134-7 7 0 0.138 0.004 0.275 0.012 0.412-1.772 0.77-3.012 2.538-3.012 4.588 0 2.761 2.232 5 4.999 5h17.001c2.761 0 4.999-2.244 4.999-5 0-2.052-1.232-3.815-3.001-4.585-0.026-1.695-0.818-3.204-2.046-4.195v0 0zM23.999 9.599v0 0c-0.75-0.383-1.599-0.599-2.499-0.599-1.059 0-2.047 0.299-2.886 0.817-0.789-1.057-1.87-1.884-3.124-2.362 0.745-1.458 2.261-2.456 4.010-2.456 2.485 0 4.5 2.015 4.5 4.5 0 0.033-0 0.066-0.001 0.099zM10.5 25c-0.276 0-0.5 0.216-0.5 0.495v2.009c0 0.274 0.232 0.495 0.5 0.495 0.276 0 0.5-0.216 0.5-0.495v-2.009c0-0.274-0.232-0.495-0.5-0.495v0zM13.5 27c-0.276 0-0.5 0.216-0.5 0.495v2.009c0 0.274 0.232 0.495 0.5 0.495 0.276 0 0.5-0.216 0.5-0.495v-2.009c0-0.274-0.232-0.495-0.5-0.495v0zM16.5 25c-0.276 0-0.5 0.216-0.5 0.495v2.009c0 0.274 0.232 0.495 0.5 0.495 0.276 0 0.5-0.216 0.5-0.495v-2.009c0-0.274-0.232-0.495-0.5-0.495v0zM19.5 27c-0.276 0-0.5 0.216-0.5 0.495v2.009c0 0.274 0.232 0.495 0.5 0.495 0.276 0 0.5-0.216 0.5-0.495v-2.009c0-0.274-0.232-0.495-0.5-0.495v0zM22.5 25c-0.276 0-0.5 0.216-0.5 0.495v2.009c0 0.274 0.232 0.495 0.5 0.495 0.276 0 0.5-0.216 0.5-0.495v-2.009c0-0.274-0.232-0.495-0.5-0.495v0zM19.5 0c-0.276 0-0.5 0.216-0.5 0.495v2.009c0 0.274 0.232 0.495 0.5 0.495 0.276 0 0.5-0.216 0.5-0.495v-2.009c0-0.274-0.232-0.495-0.5-0.495v0zM26.233 2.789c-0.195-0.195-0.506-0.201-0.704-0.003l-1.421 1.421c-0.193 0.193-0.186 0.514 0.003 0.704 0.195 0.195 0.506 0.201 0.704 0.003l1.421-1.421c0.193-0.193 0.186-0.514-0.003-0.704v0zM29.022 9.522c0-0.276-0.216-0.5-0.495-0.5h-2.009c-0.274 0-0.495 0.232-0.495 0.5 0 0.276 0.216 0.5 0.495 0.5h2.009c0.274 0 0.495-0.232 0.495-0.5v0zM12.767 2.789c-0.195 0.195-0.201 0.506-0.003 0.704l1.421 1.421c0.193 0.193 0.514 0.186 0.704-0.003 0.195-0.195 0.201-0.506 0.003-0.704l-1.421-1.421c-0.193-0.193-0.514-0.186-0.704 0.003v0z"/></symbol><symbol id="icon-cloud-moon" viewBox="0 0 32 32"><path d="M7.101 15.102v0c-0.066-0.357-0.101-0.726-0.101-1.102 0-3.314 2.686-6 6-6 2.336 0 4.361 1.335 5.352 3.285 0.812-0.795 1.923-1.285 3.148-1.285 2.485 0 4.5 2.015 4.5 4.5 0 0.209-0.014 0.415-0.042 0.616v0c1.743 0.431 3.042 2.006 3.042 3.884 0 2.205-1.792 4-4.003 4h-16.994c-2.205 0-4.003-1.791-4.003-4 0-1.895 1.325-3.488 3.101-3.898zM25.275 10.5c0.752-0.71 1.303-1.628 1.562-2.663 0.088-0.351 0.142-0.716 0.158-1.091-0.468 0.165-0.971 0.254-1.495 0.254-2.485 0-4.5-2.015-4.5-4.5 0-0.524 0.090-1.027 0.254-1.495-0.375 0.016-0.739 0.070-1.091 0.158-2.392 0.597-4.163 2.76-4.163 5.337 0 0.427 0.049 0.843 0.141 1.243-0.945-0.475-2.012-0.743-3.141-0.743-3.866 0-7 3.134-7 7 0 0.138 0.004 0.275 0.012 0.412-1.772 0.77-3.012 2.538-3.012 4.588 0 2.761 2.232 5 4.999 5h17.001c2.761 0 4.999-2.244 4.999-5 0-2.052-1.232-3.815-3.001-4.585-0.023-1.542-0.681-2.93-1.724-3.915v0 0zM24.477 9.875v0 0c-0.858-0.553-1.88-0.875-2.977-0.875-1.059 0-2.047 0.299-2.886 0.817-0.305-0.409-0.654-0.783-1.039-1.116-0.366-0.651-0.574-1.402-0.574-2.201 0-1.961 1.255-3.63 3.005-4.246-0.004 0.082-0.005 0.163-0.005 0.246 0 3.038 2.462 5.5 5.5 5.5 0.082 0 0.164-0.002 0.246-0.005-0.258 0.732-0.699 1.377-1.269 1.88z"/></symbol><symbol id="icon-cloud-wind" viewBox="0 0 32 32"><path d="M7.101 9.102c-1.776 0.41-3.101 2.002-3.101 3.898 0 2.209 1.798 4 4.003 4h16.994c2.211 0 4.003-1.795 4.003-4 0-1.877-1.299-3.453-3.042-3.884v0c0.028-0.202 0.042-0.407 0.042-0.616 0-2.485-2.015-4.5-4.5-4.5-1.226 0-2.337 0.49-3.148 1.285-0.991-1.949-3.015-3.285-5.352-3.285-3.314 0-6 2.686-6 6 0 0.377 0.035 0.745 0.101 1.102v0 0zM26.999 8.415c1.768 0.771 3.001 2.534 3.001 4.585 0 2.756-2.238 5-4.999 5h-17.001c-2.767 0-4.999-2.239-4.999-5 0-2.051 1.24-3.818 3.012-4.588v0c-0.008-0.136-0.012-0.273-0.012-0.412 0-3.866 3.134-7 7-7 2.298 0 4.337 1.107 5.614 2.817 0.839-0.518 1.828-0.817 2.886-0.817 3.009 0 5.454 2.416 5.499 5.415v0 0zM30 23c0-2.209-1.795-4-4-4-2.209 0-4 1.789-4 4h1c0-1.657 1.347-3 3-3 1.657 0 3 1.347 3 3 0 1.657-1.343 3-3.008 3h-22.992v1h23.002c2.208 0 3.998-1.795 3.998-4v0zM21 22c0-1.657-1.347-3-3-3-1.657 0-3 1.342-3 2.991v0.009h1c0-1.105 0.888-2 2-2 1.105 0 2 0.888 2 2 0 1.105-0.897 2-2.006 2h-11.994v1h12.001c1.657 0 2.999-1.347 2.999-3v0zM25 30c0 1.105-0.888 2-2 2v0c-1.105 0-2-0.895-2-1.994v-0.006h1c0 0.552 0.444 1 1 1v0c0.552 0 1-0.444 1-1v0c0-0.552-0.449-1-1.007-1h-13.993v-1h14.006c1.101 0 1.994 0.888 1.994 2v0 0z"/></symbol><symbol id="icon-cloud-lightning" viewBox="0 0 32 32"><path d="M17.067 21h2.533l-6.1 6.1 1.479-4.1h-2.579l2.3-6h3.9l-1.533 4zM19 23l3-3h-3.5l1.5-4h-6l-2.625 7h-3.372c-2.205 0-4.003-1.791-4.003-4 0-1.895 1.325-3.488 3.101-3.898v0c-0.066-0.357-0.101-0.726-0.101-1.102 0-3.314 2.686-6 6-6 2.336 0 4.361 1.335 5.352 3.285 0.812-0.795 1.923-1.285 3.148-1.285 2.485 0 4.5 2.015 4.5 4.5 0 0.209-0.014 0.415-0.042 0.616v0c1.743 0.431 3.042 2.006 3.042 3.884 0 2.205-1.792 4-4.003 4h-5.997zM18 24h7.001c2.761 0 4.999-2.244 4.999-5 0-2.052-1.232-3.815-3.001-4.585v0c-0.046-2.998-2.49-5.415-5.499-5.415-1.059 0-2.047 0.299-2.886 0.817-1.276-1.71-3.316-2.817-5.614-2.817-3.866 0-7 3.134-7 7 0 0.138 0.004 0.275 0.012 0.412v0c-1.772 0.77-3.012 2.538-3.012 4.588 0 2.761 2.232 5 4.999 5h5.546l-2.545 7 7-7z"/></symbol><symbol id="icon-cloud-sun" viewBox="0 0 32 32"><path fill="#fff" d="M7.101 15.102v0c-0.066-0.357-0.101-0.726-0.101-1.102 0-3.314 2.686-6 6-6 2.336 0 4.361 1.335 5.352 3.285 0.812-0.795 1.923-1.285 3.148-1.285 2.485 0 4.5 2.015 4.5 4.5 0 0.209-0.014 0.415-0.042 0.616v0c1.743 0.431 3.042 2.006 3.042 3.884 0 2.205-1.792 4-4.003 4h-16.994c-2.205 0-4.003-1.791-4.003-4 0-1.895 1.325-3.488 3.101-3.898zM24.953 10.219c0.031-0.235 0.047-0.475 0.047-0.719 0-3.038-2.462-5.5-5.5-5.5-2.203 0-4.103 1.295-4.981 3.165v0c-0.489-0.108-0.997-0.165-1.519-0.165-3.866 0-7 3.134-7 7 0 0.138 0.004 0.275 0.012 0.412-1.772 0.77-3.012 2.538-3.012 4.588 0 2.761 2.232 5 4.999 5h17.001c2.761 0 4.999-2.244 4.999-5 0-2.052-1.232-3.815-3.001-4.585-0.026-1.695-0.818-3.204-2.046-4.195v0 0zM23.999 9.599v0 0c-0.75-0.383-1.599-0.599-2.499-0.599-1.059 0-2.047 0.299-2.886 0.817-0.789-1.057-1.87-1.884-3.124-2.362 0.745-1.458 2.261-2.456 4.010-2.456 2.485 0 4.5 2.015 4.5 4.5 0 0.033-0 0.066-0.001 0.099zM19.5 0c-0.276 0-0.5 0.216-0.5 0.495v2.009c0 0.274 0.232 0.495 0.5 0.495 0.276 0 0.5-0.216 0.5-0.495v-2.009c0-0.274-0.232-0.495-0.5-0.495v0zM26.233 2.789c-0.195-0.195-0.506-0.201-0.704-0.003l-1.421 1.421c-0.193 0.193-0.186 0.514 0.003 0.704 0.195 0.195 0.506 0.201 0.704 0.003l1.421-1.421c0.193-0.193 0.186-0.514-0.003-0.704v0zM29.022 9.522c0-0.276-0.216-0.5-0.495-0.5h-2.009c-0.274 0-0.495 0.232-0.495 0.5 0 0.276 0.216 0.5 0.495 0.5h2.009c0.274 0 0.495-0.232 0.495-0.5v0zM12.767 2.789c-0.195 0.195-0.201 0.506-0.003 0.704l1.421 1.421c0.193 0.193 0.514 0.186 0.704-0.003 0.195-0.195 0.201-0.506 0.003-0.704l-1.421-1.421c-0.193-0.193-0.514-0.186-0.704 0.003v0z"/></symbol><symbol id="icon-cloud-rain" viewBox="0 0 32 32"><path fill="#fff" d="M7.101 15.102c-1.776 0.41-3.101 2.002-3.101 3.898 0 2.209 1.798 4 4.003 4h16.994c2.211 0 4.003-1.795 4.003-4 0-1.877-1.299-3.453-3.042-3.884v0c0.028-0.202 0.042-0.407 0.042-0.616 0-2.485-2.015-4.5-4.5-4.5-1.226 0-2.337 0.49-3.148 1.285-0.991-1.949-3.015-3.285-5.352-3.285-3.314 0-6 2.686-6 6 0 0.377 0.035 0.745 0.101 1.102v0 0zM26.999 14.415c1.768 0.771 3.001 2.534 3.001 4.585 0 2.756-2.238 5-4.999 5h-17.001c-2.767 0-4.999-2.239-4.999-5 0-2.051 1.24-3.818 3.012-4.588v0c-0.008-0.136-0.012-0.273-0.012-0.412 0-3.866 3.134-7 7-7 2.298 0 4.337 1.107 5.614 2.817 0.839-0.518 1.828-0.817 2.886-0.817 3.009 0 5.454 2.416 5.499 5.415v0 0zM10.5 25c-0.276 0-0.5 0.216-0.5 0.495v2.009c0 0.274 0.232 0.495 0.5 0.495 0.276 0 0.5-0.216 0.5-0.495v-2.009c0-0.274-0.232-0.495-0.5-0.495v0zM13.5 27c-0.276 0-0.5 0.216-0.5 0.495v2.009c0 0.274 0.232 0.495 0.5 0.495 0.276 0 0.5-0.216 0.5-0.495v-2.009c0-0.274-0.232-0.495-0.5-0.495v0zM16.5 25c-0.276 0-0.5 0.216-0.5 0.495v2.009c0 0.274 0.232 0.495 0.5 0.495 0.276 0 0.5-0.216 0.5-0.495v-2.009c0-0.274-0.232-0.495-0.5-0.495v0zM19.5 27c-0.276 0-0.5 0.216-0.5 0.495v2.009c0 0.274 0.232 0.495 0.5 0.495 0.276 0 0.5-0.216 0.5-0.495v-2.009c0-0.274-0.232-0.495-0.5-0.495v0zM22.5 25c-0.276 0-0.5 0.216-0.5 0.495v2.009c0 0.274 0.232 0.495 0.5 0.495 0.276 0 0.5-0.216 0.5-0.495v-2.009c0-0.274-0.232-0.495-0.5-0.495v0z"/></symbol><symbol id="icon-cloud" viewBox="0 0 32 32"><path d="M6.101 16.102c-1.776 0.41-3.101 2.002-3.101 3.898 0 2.209 1.798 4 4.003 4h16.994c2.211 0 4.003-1.795 4.003-4 0-1.868-1.285-3.437-3.016-3.877v0c-0.191-2.309-2.126-4.123-4.484-4.123-1.076 0-2.064 0.378-2.839 1.008-0.821-2.335-3.046-4.008-5.661-4.008-3.314 0-6 2.686-6 6 0 0.377 0.035 0.745 0.101 1.102v0zM25.883 15.366c1.83 0.743 3.117 2.538 3.117 4.634 0 2.756-2.238 5-4.999 5h-17.001c-2.767 0-4.999-2.239-4.999-5 0-2.051 1.24-3.818 3.012-4.588v0c-0.008-0.136-0.012-0.273-0.012-0.412 0-3.866 3.134-7 7-7 2.613 0 4.891 1.431 6.094 3.553 0.727-0.354 1.543-0.553 2.406-0.553 2.649 0 4.86 1.872 5.383 4.366v0 0z"/></symbol></defs></svg>